<?xml version="1.0" encoding="UTF-8" standalone="no"?>
<!-- Created with Inkscape (http://www.inkscape.org/) -->

<svg
   xmlns:dc="http://purl.org/dc/elements/1.1/"
   xmlns:cc="http://creativecommons.org/ns#"
   xmlns:rdf="http://www.w3.org/1999/02/22-rdf-syntax-ns#"
   xmlns:svg="http://www.w3.org/2000/svg"
   xmlns="http://www.w3.org/2000/svg"
   xmlns:sodipodi="http://sodipodi.sourceforge.net/DTD/sodipodi-0.dtd"
   xmlns:inkscape="http://www.inkscape.org/namespaces/inkscape"
   width="1000"
   height="178.22357"
   id="svg6122"
   version="1.1"
   inkscape:version="0.48.5 r10040"
   sodipodi:docname="A.svg">
  <defs
     id="defs6124">
    <clipPath
       clipPathUnits="userSpaceOnUse"
       id="clipPath6833">
      <path
         inkscape:connector-curvature="0"
         d="M 0,0 612,0 612,792 0,792 0,0 z"
         id="path6835" />
    </clipPath>
    <clipPath
       clipPathUnits="userSpaceOnUse"
       id="clipPath6990">
      <path
         inkscape:connector-curvature="0"
         d="m 498.243,10.7 36.347,0 0,47.885 -36.347,0 0,-47.885 z"
         id="path6992" />
    </clipPath>
  </defs>
  <sodipodi:namedview
     id="base"
     pagecolor="#ffffff"
     bordercolor="#666666"
     borderopacity="1.0"
     inkscape:pageopacity="0.0"
     inkscape:pageshadow="2"
     inkscape:zoom="0.20350036"
     inkscape:cx="1229.5762"
     inkscape:cy="-347.41407"
     inkscape:document-units="px"
     inkscape:current-layer="g6988"
     showgrid="false"
     fit-margin-left="0.5"
     fit-margin-bottom="0.5"
     fit-margin-top="0.5"
     fit-margin-right="0.5"
     inkscape:window-width="1051"
     inkscape:window-height="1039"
     inkscape:window-x="862"
     inkscape:window-y="-21"
     inkscape:window-maximized="0" />
  <metadata
     id="metadata6127">
    <rdf:RDF>
      <cc:Work
         rdf:about="">
        <dc:format>image/svg+xml</dc:format>
        <dc:type
           rdf:resource="http://purl.org/dc/dcmitype/StillImage" />
        <dc:title></dc:title>
      </cc:Work>
    </rdf:RDF>
  </metadata>
  <g
     inkscape:label="Layer 1"
     inkscape:groupmode="layer"
     id="layer1"
     transform="translate(-131.2727,-198.81337)">
    <g
       transform="matrix(27.589292,0,0,-27.589292,-13618.187,1820.0087)"
       id="g6986">
      <g
         id="g6988"
         clip-path="url(#clipPath6990)">
        <g
           id="g6998"
           transform="matrix(1.0319094,0,0,1.0319094,510.30092,55.623142)"
           style="fill:#d10700;fill-opacity:1">
          <path
             inkscape:connector-curvature="0"
             d="m 0,0 0,2.766 0.669,0 C 1.516,2.766 1.737,2.274 1.737,1.449 1.737,0.566 1.604,0 0.669,0 L 0,0 z m -4.334,-3.01 c -1.111,0 -1.457,0.706 -1.457,2.944 0,2.207 0.331,2.899 1.413,2.899 1.104,0 1.427,-0.707 1.427,-2.892 0,-2.2 -0.323,-2.951 -1.383,-2.951 m -0.044,-0.191 c 1.729,0 2.458,1.31 2.458,3.164 0,1.817 -0.699,3.061 -2.436,3.061 -1.766,0 -2.465,-1.295 -2.465,-3.142 0,-1.818 0.699,-3.083 2.443,-3.083 m 8.557,0.037 2.818,0 0,0.162 -0.934,0.044 0,5.732 1.015,0 0.618,-1.906 0.17,0 -0.059,2.097 -4.437,0 -0.067,-2.097 0.177,0 0.626,1.906 1.022,0 0,-5.732 -0.949,-0.044 0,-0.162 z m 13.693,-0.022 0.155,0 0,5.908 0.861,0.081 0,0.162 -1.979,0 0,-0.162 0.861,-0.081 0,-3.966 -2.568,4.209 -1.634,0 0,-0.162 0.64,-0.081 0.11,-0.169 0,-5.467 -0.905,-0.088 0,-0.162 2.024,0 0,0.162 -0.861,0.088 0,5.048 3.296,-5.32 z m -29.424,0.022 2.818,0 0,0.162 -0.971,0.037 0,2.965 0.986,0 0.132,-1.273 0.17,0 0,2.663 -0.17,0 -0.132,-1.206 -0.986,0 0,2.582 1.648,0 0.618,-1.898 0.169,0 -0.051,2.097 -4.231,0 0,-0.162 0.898,-0.037 0,-5.731 -0.898,-0.037 0,-0.162 z m 30.609,0 4.312,0 0.169,2.288 -0.162,0 -0.743,-2.089 -1.714,-0.008 0,2.973 0.986,0 0.11,-1.273 0.169,0 0,2.663 -0.169,0 -0.11,-1.206 -0.986,0 0,2.582 1.714,0 0.574,-1.869 0.169,0 -0.044,2.068 -4.275,0 0,-0.162 0.905,-0.037 0,-5.731 -0.905,-0.037 0,-0.162 z m -8.263,-0.037 c 1.516,0 1.78,0.691 1.78,1.42 l 0,4.503 0.795,0.081 0,0.162 -1.802,0 0,-0.162 0.735,-0.081 0,-4.503 c 0,-0.765 -0.375,-1.074 -1.184,-1.074 -1.141,0 -1.354,0.383 -1.354,1.125 l 0,4.496 0.934,0.037 0,0.162 -2.707,0 0,-0.162 0.809,-0.037 0,-4.385 c 0,-1.096 0.603,-1.582 1.994,-1.582 m -12.619,0.037 2.693,0 0,0.162 -0.868,0.037 0,2.781 0.537,0 c 0.684,0 0.89,-0.111 1.015,-0.934 l 0.31,-2.046 1.655,0 0,0.162 -0.765,0.037 -0.309,1.942 c -0.111,0.706 -0.515,0.875 -1.192,0.942 0.853,0.147 1.405,0.574 1.405,1.545 0,0.956 -0.324,1.501 -1.92,1.501 l -2.568,0 0,-0.162 0.898,-0.037 0,-5.731 -0.891,-0.037 0,-0.162 z"
             style="fill:#d10700;fill-opacity:1;fill-rule:nonzero;stroke:none"
             id="path7000" />
        </g>
      </g>
    </g>
  </g>
</svg>
